<svg xmlns="http://www.w3.org/2000/svg" viewBox="0 0 64 64" width="64" height="64">
  <defs>
    <linearGradient id="keyGradient" x1="0%" y1="0%" x2="100%" y2="100%">
      <stop offset="0%" style="stop-color:#6C8EFF;stop-opacity:1" />
      <stop offset="100%" style="stop-color:#4A6FD8;stop-opacity:1" />
    </linearGradient>
  </defs>
  
  <!-- 背景圆角矩形 -->
  <rect x="4" y="4" width="56" height="56" rx="12" fill="url(#keyGradient)" opacity="0.9"/>
  
  <!-- 钥匙主体 -->
  <path d="M 32 20 L 32 16 L 28 16 L 28 20 L 24 20 L 24 24 L 28 24 L 28 28 L 32 28 L 32 32 L 36 32 L 36 28 L 40 28 L 40 24 L 36 24 L 36 20 Z" 
        fill="rgba(255, 255, 255, 0.95)" stroke="rgba(255, 255, 255, 0.3)" stroke-width="1"/>
  
  <!-- 钥匙齿 -->
  <rect x="24" y="24" width="4" height="4" fill="rgba(255, 255, 255, 0.95)"/>
  <rect x="36" y="24" width="4" height="4" fill="rgba(255, 255, 255, 0.95)"/>
  
  <!-- 钥匙环 -->
  <circle cx="32" cy="16" r="4" fill="none" stroke="rgba(255, 255, 255, 0.95)" stroke-width="2"/>
  
  <!-- 锁图标 -->
  <rect x="24" y="36" width="16" height="12" rx="2" fill="rgba(255, 255, 255, 0.7)" stroke="rgba(255, 255, 255, 0.9)" stroke-width="1.5"/>
  <rect x="28" y="40" width="8" height="6" rx="1" fill="rgba(108, 142, 255, 0.8)"/>
</svg>
