<?xml version="1.0" standalone="no"?><!DOCTYPE svg PUBLIC "-//W3C//DTD SVG 1.1//EN" "http://www.w3.org/Graphics/SVG/1.1/DTD/svg11.dtd"><svg t="1761228288935" class="icon" viewBox="0 0 1024 1024" version="1.1" xmlns="http://www.w3.org/2000/svg" p-id="10265" xmlns:xlink="http://www.w3.org/1999/xlink" width="256" height="256"><path d="M295.190349 681.835764" fill="#d81e06" p-id="10266"></path><path d="M500.401802 590.992535c-0.060478-0.672315-0.122972-1.407125-0.18345-2.079441C500.278829 589.58541 500.341324 590.320219 500.401802 590.992535z" p-id="10267" fill="#d81e06"></path><path d="M692.247582 373.768104c1.589568 0 3.180143 0.061486 4.768703 0.061486C695.427725 373.82959 693.83715 373.768104 692.247582 373.768104z" p-id="10268" fill="#d81e06"></path><path d="M703.621508 374.136013c0.979746 0.060478 1.835512 0.121964 2.813242 0.18345C705.45702 374.257977 704.601254 374.195483 703.621508 374.136013z" p-id="10269" fill="#d81e06"></path><path d="M500.955177 596.496047c0-0.610829-0.12398-1.283145-0.185466-1.896998C500.830189 595.212902 500.955177 595.885218 500.955177 596.496047z" p-id="10270" fill="#d81e06"></path><path d="M751.323653 383.308533c0.732794 0.18345 1.345639 0.428387 2.079441 0.673323C752.669292 383.73692 752.056446 383.491983 751.323653 383.308533z" p-id="10271" fill="#d81e06"></path><path d="M708.453712 374.502914c0.916244 0.061486 1.77201 0.122972 2.629792 0.243929C710.225722 374.625886 709.369956 374.563392 708.453712 374.502914z" p-id="10272" fill="#d81e06"></path><path d="M499.974423 585.36605c-0.061486-0.671308-0.122972-1.346647-0.122972-2.017954C499.851451 584.019403 499.912937 584.694743 499.974423 585.36605z" p-id="10273" fill="#d81e06"></path><path d="M502.666709 608.053422c0-0.182442 0-0.427379-0.122972-0.672315C502.666709 607.626043 502.666709 607.87098 502.666709 608.053422z" p-id="10274" fill="#d81e06"></path><path d="M499.669008 579.494629c0-0.609821-0.061486-1.161181-0.061486-1.773018C499.60853 578.332441 499.669008 578.8838 499.669008 579.494629z" p-id="10275" fill="#d81e06"></path><path d="M713.160929 374.930293c0.855766 0.122972 1.71254 0.244937 2.572338 0.306423C714.873468 375.175229 714.015687 375.053265 713.160929 374.930293z" p-id="10276" fill="#d81e06"></path><path d="M741.781208 380.433805c0.978738 0.244937 1.957476 0.551359 2.93823 0.795288C743.739692 380.985164 742.759946 380.678741 741.781208 380.433805z" p-id="10277" fill="#d81e06"></path><path d="M736.032759 378.904715c0.980754 0.244937 1.834504 0.489873 2.752764 0.673323C737.868271 379.395596 737.013513 379.15066 736.032759 378.904715z" p-id="10278" fill="#d81e06"></path><path d="M746.920843 381.902416c0.733802 0.18345 1.466595 0.427379 2.139919 0.671308C748.387438 382.330803 747.654645 382.086874 746.920843 381.902416z" p-id="10279" fill="#d81e06"></path><path d="M731.568463 377.927993c0.798312 0.182442 1.655086 0.365893 2.509843 0.549343C733.222541 378.293886 732.366775 378.110436 731.568463 377.927993z" p-id="10280" fill="#d81e06"></path><path d="M727.044697 377.009733c0.795288 0.18345 1.651054 0.304407 2.505812 0.489873C728.695751 377.315148 727.839985 377.194192 727.044697 377.009733z" p-id="10281" fill="#d81e06"></path><path d="M717.809683 375.541122c0.857782 0.12398 1.713548 0.245944 2.568306 0.367909C719.523231 375.787066 718.667465 375.665102 717.809683 375.541122z" p-id="10282" fill="#d81e06"></path><path d="M722.457429 376.213437c0.855766 0.12398 1.711532 0.306423 2.507828 0.428387C724.169969 376.520868 723.313195 376.337418 722.457429 376.213437z" p-id="10283" fill="#d81e06"></path><path d="M501.686963 601.939081c-0.062494-0.429395-0.12398-0.91826-0.182442-1.407125C501.562982 601.020821 501.625476 601.510694 501.686963 601.939081z" p-id="10284" fill="#d81e06"></path><path d="M528.472738 676.732416c-0.122972-0.244937-0.244937-0.428387-0.366901-0.672315C528.227801 676.304029 528.349765 676.486471 528.472738 676.732416z" p-id="10285" fill="#d81e06"></path><path d="M531.406936 681.380162c-0.120956-0.244937-0.243929-0.428387-0.427379-0.673323C531.163008 680.951775 531.28598 681.135225 531.406936 681.380162z" p-id="10286" fill="#d81e06"></path><path d="M525.477053 671.534318c0 0-0.062494 0-0.062494-0.062494C525.414559 671.534318 525.477053 671.534318 525.477053 671.534318z" p-id="10287" fill="#d81e06"></path><path d="M534.345166 685.845466c-0.12398-0.185466-0.12398-0.307431-0.246952-0.429395C534.220178 685.538035 534.220178 685.659999 534.345166 685.845466z" p-id="10288" fill="#d81e06"></path><path d="M547.860018 703.456705c-0.063502-0.122972-0.18345-0.184458-0.18345-0.244937C547.676568 703.273254 547.796516 703.333732 547.860018 703.456705z" p-id="10289" fill="#d81e06"></path><path d="M520.277948 661.686459c-0.121964-0.182442-0.121964-0.364885-0.244937-0.485841C520.155983 661.320566 520.155983 661.504016 520.277948 661.686459z" p-id="10290" fill="#d81e06"></path><path d="M571.2822 726.511985c0 0 0-0.062494-0.062494-0.062494C571.2822 726.450499 571.2822 726.511985 571.2822 726.511985z" p-id="10291" fill="#d81e06"></path><path d="M551.46754 707.5541c-0.061486-0.120956-0.122972-0.18345-0.185466-0.243929C551.344568 707.370649 551.406054 707.433143 551.46754 707.5541z" p-id="10292" fill="#d81e06"></path><path d="M515.81466 652.025073c-0.185466-0.428387-0.304407-0.856774-0.553375-1.284153C515.510253 651.168299 515.629193 651.596686 515.81466 652.025073z" p-id="10293" fill="#d81e06"></path><path d="M506.517151 625.177812c-0.180426-0.610829-0.303399-1.162189-0.427379-1.71254C506.213752 624.015624 506.336725 624.566983 506.517151 625.177812z" p-id="10294" fill="#d81e06"></path><path d="M509.574322 635.452043c-0.060478-0.122972-0.060478-0.18345-0.060478-0.243929C509.514852 635.2696 509.514852 635.32907 509.574322 635.452043z" p-id="10295" fill="#d81e06"></path><path d="M507.98677 630.315431c-0.184458-0.427379-0.309447-0.917252-0.429395-1.407125C507.677324 629.398179 507.802312 629.888052 507.98677 630.315431z" p-id="10296" fill="#d81e06"></path><path d="M505.173528 619.85775c-0.18345-0.611837-0.306423-1.161181-0.429395-1.773018C504.867106 618.695562 504.990078 619.244905 505.173528 619.85775z" p-id="10297" fill="#d81e06"></path><path d="M518.016065 656.917756c-0.185466-0.366901-0.305415-0.73481-0.552367-1.10171C517.711658 656.182946 517.831606 656.550855 518.016065 656.917756z" p-id="10298" fill="#d81e06"></path><path d="M511.596308 641.201499c-0.124988-0.184458-0.124988-0.306423-0.24796-0.488865C511.47132 640.895077 511.47132 641.017041 511.596308 641.201499z" p-id="10299" fill="#d81e06"></path><path d="M503.888367 614.354238c-0.061486-0.552367-0.184458-1.040224-0.304407-1.590575C503.703909 613.314014 503.826881 613.801871 503.888367 614.354238z" p-id="10300" fill="#d81e06"></path><path d="M513.673733 646.888462c-0.122972-0.367909-0.245944-0.796296-0.428387-1.163197C513.427788 646.092166 513.550761 646.520553 513.673733 646.888462z" p-id="10301" fill="#d81e06"></path><path d="M698.604845 373.891076c1.041232 0.061486 2.081457 0.061486 3.119665 0.121964C700.687309 373.952562 699.647085 373.952562 698.604845 373.891076z" p-id="10302" fill="#d81e06"></path><path d="M791.073928 401.840048c0.18345 0.120956 0.364885 0.243929 0.551359 0.305415C791.438813 402.082968 791.256371 401.961004 791.073928 401.840048z" p-id="10303" fill="#d81e06"></path><path d="M780.431789 395.724698c0.184458 0.120956 0.367909 0.182442 0.551359 0.303399C780.799698 395.907141 780.616247 395.845655 780.431789 395.724698z" p-id="10304" fill="#d81e06"></path><path d="M794.377044 403.917473c0.364885 0.244937 0.6703 0.429395 0.975714 0.672315C795.047343 404.346867 794.741928 404.162409 794.377044 403.917473z" p-id="10305" fill="#d81e06"></path><path d="M797.926103 406.302328c0.363877 0.246952 0.732794 0.489873 1.097679 0.73481C798.657889 406.792201 798.28998 406.548272 797.926103 406.302328z" p-id="10306" fill="#d81e06"></path><path d="M772.359971 391.686774c0.548335 0.244937 1.038208 0.488865 1.589568 0.73481C773.399187 392.176647 772.908306 391.932718 772.359971 391.686774z" p-id="10307" fill="#d81e06"></path><path d="M768.324062 389.85227c0.487857 0.244937 1.098686 0.489873 1.58856 0.73481C769.422749 390.342143 768.812927 390.097206 768.324062 389.85227z" p-id="10308" fill="#d81e06"></path><path d="M776.396888 393.643242c0.486849 0.244937 0.85879 0.489873 1.345639 0.673323C777.255678 394.133115 776.884745 393.889186 776.396888 393.643242z" p-id="10309" fill="#d81e06"></path><path d="M815.475856 419.634737c0.243929 0.18345 0.427379 0.428387 0.671308 0.611837C815.903235 420.063124 815.719785 419.818188 815.475856 419.634737z" p-id="10310" fill="#d81e06"></path><path d="M805.139131 411.317983c0.366901 0.305415 0.735818 0.610829 1.103726 0.856774C805.874949 411.92982 805.506032 411.623397 805.139131 411.317983z" p-id="10311" fill="#d81e06"></path><path d="M801.529593 408.749677c0.429395 0.305415 0.797304 0.550351 1.164204 0.795288C802.326897 409.300028 801.958988 409.055092 801.529593 408.749677z" p-id="10312" fill="#d81e06"></path><path d="M808.623681 414.009261c0.309447 0.305415 0.675339 0.550351 1.041232 0.856774C809.29902 414.559612 808.933128 414.314675 808.623681 414.009261z" p-id="10313" fill="#d81e06"></path><path d="M812.109239 416.761017c0.246952 0.305415 0.612845 0.549343 0.856774 0.79428C812.722084 417.31036 812.356191 417.066431 812.109239 416.761017z" p-id="10314" fill="#d81e06"></path><path d="M755.666992 384.776136c0.6703 0.244937 1.283145 0.489873 1.892966 0.73481C756.950137 385.265001 756.337292 385.020065 755.666992 384.776136z" p-id="10315" fill="#d81e06"></path><path d="M759.884336 386.366712c0.674331 0.243929 1.284153 0.488865 1.89599 0.73481C761.169496 386.855577 760.558667 386.61064 759.884336 386.366712z" p-id="10316" fill="#d81e06"></path><path d="M764.163165 388.078244c0.552367 0.244937 1.163197 0.489873 1.716572 0.733802C765.32737 388.568117 764.715532 388.32318 764.163165 388.078244z" p-id="10317" fill="#d81e06"></path><path d="M809.664913 414.866035c0.79428 0.609821 1.58856 1.283145 2.444325 1.894982C811.253473 416.150187 810.459193 415.476864 809.664913 414.866035z" p-id="10318" fill="#d81e06"></path><path d="M513.245346 645.725265c-0.551359-1.466595-1.163197-2.995685-1.649038-4.523766C512.082149 642.729581 512.693987 644.25867 513.245346 645.725265z" p-id="10319" fill="#d81e06"></path><path d="M517.463697 655.817054c-0.488865-1.284153-1.099694-2.505812-1.650046-3.79198C516.365011 653.310234 516.974832 654.531893 517.463697 655.817054z" p-id="10320" fill="#d81e06"></path><path d="M753.403093 383.981857c0.733802 0.244937 1.464579 0.551359 2.263899 0.79428C754.867673 384.533216 754.135887 384.226793 753.403093 383.981857z" p-id="10321" fill="#d81e06"></path><path d="M515.261285 650.739912c-0.486849-1.283145-1.034176-2.567298-1.587552-3.851451C514.227108 648.173623 514.774435 649.456768 515.261285 650.739912z" p-id="10322" fill="#d81e06"></path><path d="M806.242858 412.174757c0.732794 0.610829 1.587552 1.221659 2.380823 1.834504C807.830409 413.396415 806.974643 412.785586 806.242858 412.174757z" p-id="10323" fill="#d81e06"></path><path d="M509.514852 635.208114c-0.548335-1.590575-1.0372-3.242637-1.528081-4.892683C508.476643 631.965477 508.966517 633.617539 509.514852 635.208114z" p-id="10324" fill="#d81e06"></path><path d="M744.719438 381.229093c0.733802 0.246952 1.465587 0.429395 2.201405 0.674331C746.186033 381.658487 745.45324 381.475037 744.719438 381.229093z" p-id="10325" fill="#d81e06"></path><path d="M812.965005 417.555297c0.857782 0.73481 1.716572 1.407125 2.509843 2.079441C814.682584 418.961414 813.822786 418.290106 812.965005 417.555297z" p-id="10326" fill="#d81e06"></path><path d="M757.559958 385.510946c0.856774 0.244937 1.592591 0.551359 2.325385 0.855766C759.15255 386.061297 758.415724 385.754874 757.559958 385.510946z" p-id="10327" fill="#d81e06"></path><path d="M511.348348 640.711626c-0.608813-1.775034-1.221659-3.485558-1.774026-5.259584C510.126689 637.226069 510.740542 638.936592 511.348348 640.711626z" p-id="10328" fill="#d81e06"></path><path d="M530.980565 680.706838c-0.796296-1.345639-1.652062-2.691278-2.50682-3.974423C529.328503 678.015561 530.184269 679.361199 530.980565 680.706838z" p-id="10329" fill="#d81e06"></path><path d="M818.838441 422.570952 818.838441 422.570952c-0.856774-0.796296-1.775034-1.590575-2.691278-2.324377C817.063408 420.981384 817.981668 421.775664 818.838441 422.570952z" p-id="10330" fill="#d81e06"></path><path d="M534.097206 685.416071c-0.917252-1.344631-1.830472-2.691278-2.69027-4.035909C532.266734 682.724793 533.179954 684.07144 534.097206 685.416071z" p-id="10331" fill="#d81e06"></path><path d="M547.676568 703.211768c-4.771726-5.503512-9.176552-11.314455-13.332409-17.366302C538.501024 691.897313 542.904841 697.708256 547.676568 703.211768z" p-id="10332" fill="#d81e06"></path><path d="M575.563045 729.937065c-1.469619-1.100702-2.812234-2.262891-4.280845-3.424072C572.750811 727.674174 574.093426 728.836362 575.563045 729.937065z" p-id="10333" fill="#d81e06"></path><path d="M551.282074 707.309163c-1.161181-1.283145-2.322361-2.569314-3.423064-3.852459C548.960721 704.740857 550.120893 706.026018 551.282074 707.309163z" p-id="10334" fill="#d81e06"></path><path d="M507.557376 628.907298c-0.363877-1.222667-0.735818-2.50682-1.040224-3.729486C506.821558 626.400479 507.193499 627.684632 507.557376 628.907298z" p-id="10335" fill="#d81e06"></path><path d="M525.414559 671.472832c-1.774026-3.181151-3.48455-6.483258-5.136611-9.786374C521.930009 664.989574 523.640533 668.290673 525.414559 671.472832z" p-id="10336" fill="#d81e06"></path><path d="M749.060762 382.573724c0.795288 0.244937 1.529089 0.488865 2.262891 0.73481C750.589851 383.063597 749.856049 382.81866 749.060762 382.573724z" p-id="10337" fill="#d81e06"></path><path d="M551.46754 707.5541c6.115349 6.727187 12.72158 13.028003 19.753174 18.8964C564.18912 720.581094 557.58289 714.280278 551.46754 707.5541z" p-id="10338" fill="#d81e06"></path><path d="M520.033011 661.199609c-0.733802-1.407125-1.346647-2.875736-2.016946-4.281853C518.686364 658.324881 519.300217 659.792484 520.033011 661.199609z" p-id="10339" fill="#d81e06"></path><path d="M662.892494 376.092481C570.425426 390.647557 499.547044 472.840394 499.547044 572.096135 499.547044 472.840394 570.425426 390.647557 662.892494 376.092481z" p-id="10340" fill="#d81e06"></path><path d="M528.105837 676.0601c-0.856774-1.468611-1.711532-2.997701-2.628784-4.524774C526.394305 673.0624 527.249063 674.590481 528.105837 676.0601z" p-id="10341" fill="#d81e06"></path><path d="M773.949539 392.421583c0.855766 0.428387 1.651054 0.855766 2.447349 1.221659C775.600592 393.277349 774.805304 392.84997 773.949539 392.421583z" p-id="10342" fill="#d81e06"></path><path d="M706.43475 374.319463c0.672315 0.061486 1.346647 0.121964 2.018962 0.18345C707.781397 374.44042 707.107065 374.380949 706.43475 374.319463z" p-id="10343" fill="#d81e06"></path><path d="M777.742527 394.316565c0.856774 0.489873 1.774026 0.917252 2.689262 1.407125C779.516553 395.234825 778.599301 394.806438 777.742527 394.316565z" p-id="10344" fill="#d81e06"></path><path d="M729.551517 377.500614c0.612845 0.120956 1.346647 0.241913 2.016946 0.427379C730.898164 377.742527 730.164362 377.621571 729.551517 377.500614z" p-id="10345" fill="#d81e06"></path><path d="M701.724509 374.012033c0.674331 0.062494 1.283145 0.062494 1.896998 0.12398C703.008662 374.074527 702.398841 374.074527 701.724509 374.012033z" p-id="10346" fill="#d81e06"></path><path d="M780.983148 396.028097c3.423064 1.835512 6.788673 3.79198 10.09078 5.811951C787.771821 399.820077 784.406212 397.863609 780.983148 396.028097z" p-id="10347" fill="#d81e06"></path><path d="M697.016285 373.82959c0.489873 0 1.041232 0.061486 1.58856 0.061486C698.057517 373.891076 697.507166 373.82959 697.016285 373.82959z" p-id="10348" fill="#d81e06"></path><path d="M499.60853 577.721611c0-1.89599-0.061486-3.730494-0.061486-5.625476C499.547044 573.991117 499.60853 575.825621 499.60853 577.721611z" p-id="10349" fill="#d81e06"></path><path d="M720.377988 375.909031c0.733802 0.05947 1.407125 0.18345 2.079441 0.304407C721.785114 376.092481 721.11179 375.968501 720.377988 375.909031z" p-id="10350" fill="#d81e06"></path><path d="M769.91363 390.586071c0.856774 0.366901 1.710524 0.73481 2.447349 1.100702C771.624153 391.320881 770.769396 390.952972 769.91363 390.586071z" p-id="10351" fill="#d81e06"></path><path d="M715.733266 375.236715c0.732794 0.121964 1.404101 0.18345 2.077425 0.304407C717.136359 375.420166 716.465052 375.35868 715.733266 375.236715z" p-id="10352" fill="#d81e06"></path><path d="M499.851451 583.348096c-0.061486-1.283145-0.119948-2.569314-0.182442-3.853466C499.731502 580.778782 499.789964 582.064951 499.851451 583.348096z" p-id="10353" fill="#d81e06"></path><path d="M711.083504 374.746842c0.731786 0.061486 1.407125 0.12398 2.077425 0.18345C712.490629 374.870822 711.81529 374.808328 711.083504 374.746842z" p-id="10354" fill="#d81e06"></path><path d="M724.966265 376.641824c0.671308 0.12398 1.405109 0.244937 2.079441 0.367909C726.370366 376.886761 725.637572 376.765805 724.966265 376.641824z" p-id="10355" fill="#d81e06"></path><path d="M802.693798 409.544965c0.795288 0.610829 1.58856 1.221659 2.445333 1.773018C804.282357 410.766624 803.489086 410.155794 802.693798 409.544965z" p-id="10356" fill="#d81e06"></path><path d="M765.880745 388.812045c0.855766 0.306423 1.58856 0.673323 2.444325 1.040224C767.469304 389.485369 766.735503 389.118468 765.880745 388.812045z" p-id="10357" fill="#d81e06"></path><path d="M502.543736 607.381107c-0.244937-1.774026-0.609821-3.606514-0.856774-5.441018C501.932907 603.774593 502.2988 605.607081 502.543736 607.381107z" p-id="10358" fill="#d81e06"></path><path d="M503.583961 612.763663c-0.307431-1.590575-0.612845-3.119665-0.917252-4.71024C502.971115 609.643998 503.27653 611.172079 503.583961 612.763663z" p-id="10359" fill="#d81e06"></path><path d="M738.786531 379.578039c1.040224 0.306423 2.016946 0.551359 2.995685 0.855766C740.803477 380.130406 739.826755 379.885469 738.786531 379.578039z" p-id="10360" fill="#d81e06"></path><path d="M799.022774 407.037137c0.856774 0.551359 1.711532 1.162189 2.505812 1.71254C800.735314 408.198318 799.879548 407.588497 799.022774 407.037137z" p-id="10361" fill="#d81e06"></path><path d="M504.744133 618.084732c-0.243929-1.224683-0.552367-2.508835-0.856774-3.730494C504.191766 615.575897 504.500205 616.86005 504.744133 618.084732z" p-id="10362" fill="#d81e06"></path><path d="M506.089772 623.465272c-0.365893-1.222667-0.611837-2.383847-0.916244-3.607522C505.477935 621.081425 505.723879 622.242606 506.089772 623.465272z" p-id="10363" fill="#d81e06"></path><path d="M791.625287 402.144455c0.917252 0.611837 1.896998 1.161181 2.751756 1.773018C793.521278 403.306643 792.542539 402.756292 791.625287 402.144455z" p-id="10364" fill="#d81e06"></path><path d="M500.769711 594.599049c-0.122972-1.221659-0.242921-2.383847-0.367909-3.606514C500.52679 592.215201 500.646738 593.37739 500.769711 594.599049z" p-id="10365" fill="#d81e06"></path><path d="M734.078307 378.477336c0.6703 0.18345 1.345639 0.306423 1.954452 0.427379C735.423946 378.783759 734.748606 378.660787 734.078307 378.477336z" p-id="10366" fill="#d81e06"></path><path d="M500.218351 588.913094c-0.119948-1.160173-0.182442-2.323369-0.243929-3.547044C500.035909 586.589725 500.098403 587.751914 500.218351 588.913094z" p-id="10367" fill="#d81e06"></path><path d="M795.352758 404.589788c0.859798 0.551359 1.716572 1.10171 2.573346 1.711532C797.069329 405.691498 796.211548 405.141147 795.352758 404.589788z" p-id="10368" fill="#d81e06"></path><path d="M761.780326 387.100513c0.795288 0.304407 1.527073 0.610829 2.382839 0.97773C763.307399 387.711343 762.575613 387.40492 761.780326 387.100513z" p-id="10369" fill="#d81e06"></path><path d="M501.50452 600.532964c-0.184458-1.284153-0.369925-2.629792-0.550351-4.036917C501.134595 597.902164 501.32107 599.247803 501.50452 600.532964z" p-id="10370" fill="#d81e06"></path><path d="M504.355057 16.463162c-278.268057 0-503.770939 225.502882-503.770939 503.770939 0 278.199515 225.502882 503.765899 503.770939 503.765899 278.268057 0 503.771947-225.565376 503.771947-503.765899C1008.127004 241.966044 782.623114 16.463162 504.355057 16.463162zM822.719123 680.059722 472.871137 551.719029l0.551359-347.20509 62.478974 0.677355-0.611837 288.169339 313.013765 119.546162L822.719123 680.059722z" p-id="10371" fill="#d81e06"></path></svg>