<?xml version="1.0" standalone="no"?><!DOCTYPE svg PUBLIC "-//W3C//DTD SVG 1.1//EN" "http://www.w3.org/Graphics/SVG/1.1/DTD/svg11.dtd"><svg t="1761311105503" class="icon" viewBox="0 0 1024 1024" version="1.1" xmlns="http://www.w3.org/2000/svg" p-id="29018" xmlns:xlink="http://www.w3.org/1999/xlink" width="256" height="256"><path d="M896 544a32 32 0 0 1 31.776 28.256L928 576v224a128 128 0 0 1-121.6 127.84L800 928H224a128 128 0 0 1-127.84-121.6L96 800v-224a32 32 0 0 1 63.776-3.744L160 576v224a64 64 0 0 0 59.2 63.84L224 864h576a64 64 0 0 0 63.84-59.2L864 800v-224a32 32 0 0 1 32-32z" fill="#f4ea2a" p-id="29019"></path><path d="M534.624 662.624a32 32 0 0 1-42.24 2.656l-3.008-2.656-192-192a32 32 0 0 1 42.24-47.904l3.008 2.656L512 594.72l169.376-169.344a32 32 0 0 1 42.24-2.656l3.008 2.656a32 32 0 0 1 2.656 42.24l-2.656 3.008-192 192z" fill="#f4ea2a" p-id="29020"></path><path d="M512 608a32 32 0 0 1-31.776-28.256L480 576V128a32 32 0 0 1 63.776-3.744L544 128v448a32 32 0 0 1-32 32z" fill="#f4ea2a" p-id="29021"></path></svg>