<?xml version="1.0" standalone="no"?><!DOCTYPE svg PUBLIC "-//W3C//DTD SVG 1.1//EN" "http://www.w3.org/Graphics/SVG/1.1/DTD/svg11.dtd"><svg t="1761315373634" class="icon" viewBox="0 0 1024 1024" version="1.1" xmlns="http://www.w3.org/2000/svg" p-id="7877" xmlns:xlink="http://www.w3.org/1999/xlink" width="256" height="256"><path d="M475.704889 156.672c-7.793778-16.213333-26.112-22.357333-40.846222-13.767111a32.199111 32.199111 0 0 0-13.653334 16.213333L275.911111 531.171556h185.571556c27.818667 0 50.346667 24.746667 50.346666 55.239111 0 30.549333-22.528 55.296-50.346666 55.296H232.675556l-107.861334 276.081777c-11.264 27.875556-40.96 40.504889-66.446222 28.16-25.031111-12.174222-36.579556-43.975111-26.168889-71.68l120.32-307.996444a58.026667 58.026667 0 0 1 1.194667-3.128889L328.590222 115.484444C371.939556 4.551111 513.251556-1.820444 564.792889 104.903111l102.4 212.423111c13.084444 26.965333 3.697778 60.416-20.935111 74.752-24.576 14.222222-55.068444 3.982222-68.096-23.04l-102.4-212.366222z m279.495111 404.252444c-10.24-28.558222-47.217778-27.875556-56.604444 0.910223l-54.784 168.334222h171.975111L755.2 560.924444z m100.181333 279.779556l42.894223 119.751111c10.183111 28.444444 39.424 42.439111 65.308444 31.288889 25.884444-11.207111 38.684444-43.235556 28.444444-71.68l-143.018666-399.644444c-44.259556-123.562667-204.572444-120.832-245.304889 4.266666l-129.194667 396.970667c-8.533333 28.103111 4.664889 58.538667 29.809778 69.063111 25.998222 10.922667 55.182222-3.413333 65.080889-31.857778l38.4-118.158222h247.580444z" p-id="7878" fill="#bfbfbf"></path></svg>