<?xml version="1.0" standalone="no"?><!DOCTYPE svg PUBLIC "-//W3C//DTD SVG 1.1//EN" "http://www.w3.org/Graphics/SVG/1.1/DTD/svg11.dtd"><svg t="1758847331062" class="icon" viewBox="0 0 1024 1024" version="1.1" xmlns="http://www.w3.org/2000/svg" p-id="10034" data-darkreader-inline-fill="" xmlns:xlink="http://www.w3.org/1999/xlink" width="256" height="256"><path d="M512 64.2c-240.4 0-435.2 194.9-435.2 435.2v24.8c0 240.4 194.9 435.2 435.2 435.2 116 0 221.5-45.4 299.5-119.4L682.6 711.3c-96 76.8-232.4 76.8-328.4 0-113.4-90.7-131.9-256.2-41.2-369.6s256.2-131.9 369.6-41.2c113.4 90.7 131.9 256.2 41.2 369.6l127.3 127.1c60.1-74.6 96.1-169.6 96.1-272.9v-24.8c0-240.4-194.8-435.3-435.2-435.3z" fill="#39C9BF" p-id="10035" style="--darkreader-inline-fill: var(--darkreader-background-39c9bf, #2b9f99);" data-darkreader-inline-fill=""></path><path d="M373.603134 650.461389a204.6 204.6 0 1 0 289.343045-289.353145 204.6 204.6 0 1 0-289.343045 289.353145Z" fill="#39C9BF" p-id="10036" style="--darkreader-inline-fill: var(--darkreader-background-39c9bf, #2b9f99);" data-darkreader-inline-fill=""></path></svg>