<?xml version="1.0" standalone="no"?><!DOCTYPE svg PUBLIC "-//W3C//DTD SVG 1.1//EN" "http://www.w3.org/Graphics/SVG/1.1/DTD/svg11.dtd"><svg t="1757570243067" class="icon" viewBox="0 0 1024 1024" version="1.1" xmlns="http://www.w3.org/2000/svg" p-id="23057" xmlns:xlink="http://www.w3.org/1999/xlink" width="256" height="256"><path d="M308.992 334.904889h418.645333l199.68-122.368h-6.485333L566.812444 12.8A190.691556 190.691556 0 0 0 508.672 0a187.733333 187.733333 0 0 0-57.969778 12.856889l-341.333333 199.68 199.68 122.368zM766.264889 438.044444l-206.108445 328.476445V1024h6.656l347.761778-199.68a129.763556 129.763556 0 0 0 57.969778-96.711111V309.191111L766.264889 438.044444z m-128.853333 0H386.304l122.368 212.48L637.468444 438.044444z m-180.280889 328.476445l-199.68-341.333333L51.399111 296.277333v412.16a111.217778 111.217778 0 0 0 57.969778 96.711111l347.761778 199.68h6.428444v-238.421333z" p-id="23058" fill="#515151"></path></svg>