<svg width="128" height="128" viewBox="0 0 128 128" xmlns="http://www.w3.org/2000/svg" fill="none">
  <defs>
    <linearGradient id="g1" x1="0%" y1="0%" x2="100%" y2="100%">
      <stop offset="0%" stop-color="#7F5AF0"/>
      <stop offset="100%" stop-color="#5EEAD4"/>
    </linearGradient>
    <linearGradient id="g2" x1="0%" y1="0%" x2="100%" y2="100%">
      <stop offset="0%" stop-color="#FFD166" stop-opacity="0.9"/>
      <stop offset="100%" stop-color="#FF6B6B" stop-opacity="0.9"/>
    </linearGradient>
  </defs>
  <rect x="10" y="10" width="108" height="108" rx="24" fill="#0B1220" stroke="url(#g1)" stroke-width="3"/>
  <path d="M40 88c0-10 8-18 18-18s18 8 18 18c0 8-6 14-14 14-14 0-22-6-22-14Z" fill="url(#g2)" opacity="0.8"/>
  <path d="M46 74L86 34c4-4 10-4 14 0s4 10 0 14L60 88l-14-14Z" fill="url(#g1)" opacity="0.9"/>
  <path d="M44 72l6 6" stroke="#0B1220" stroke-width="4" stroke-linecap="round"/>
  <circle cx="98" cy="34" r="6" fill="#FFE066" stroke="#0B1220" stroke-width="2"/>
</svg>

